<svg width="509" height="120" viewBox="0 0 509 120" fill="none" xmlns="http://www.w3.org/2000/svg">
<g clip-path="url(#clip0_569_4367)">
<path d="M845.856 -69.0902L851.571 -40.0774L16.8683 124.351L11.153 95.3383L845.856 -69.0902Z" fill="#212121" stroke="#EAE6DD" stroke-width="0.25"/>
<path d="M38.5248 110.49L37.6377 110.665C36.6801 110.852 35.8292 110.936 35.0736 110.913C34.3181 110.89 33.733 110.803 33.2956 110.642C32.8583 110.482 32.4981 110.259 32.2038 109.971C31.9095 109.683 31.6995 109.415 31.5896 109.16C31.4683 108.901 31.3789 108.628 31.3258 108.33L31.3026 108.189L34.4506 107.567C34.724 108.572 35.7694 108.895 37.614 108.533L37.7983 108.5C38.3988 108.383 38.8991 108.252 39.2833 108.114C39.6676 107.977 39.9426 107.849 40.1061 107.703C40.265 107.568 40.3694 107.438 40.4032 107.32C40.4484 107.206 40.4526 107.062 40.4181 106.917C40.3834 106.705 40.2988 106.553 40.1643 106.46C40.0298 106.367 39.7771 106.306 39.3788 106.28C38.9759 106.265 38.4254 106.323 37.7043 106.445L36.0346 106.732C32.8842 107.261 31.1302 106.63 30.7729 104.84L30.7521 104.726C30.6922 104.412 30.6778 104.117 30.693 103.846C30.7082 103.575 30.8258 103.279 31.0025 102.966C31.1906 102.659 31.447 102.378 31.7877 102.118C32.1284 101.857 32.608 101.613 33.2195 101.368C33.831 101.123 34.5679 100.927 35.4162 100.75L36.3147 100.579C37.2018 100.404 37.9912 100.309 38.6784 100.305C39.3816 100.294 39.9416 100.345 40.3856 100.455C40.8297 100.566 41.1965 100.738 41.502 100.964C41.8075 101.191 42.0425 101.43 42.1911 101.686C42.3397 101.943 42.4405 102.221 42.5005 102.535L42.5282 102.664L39.3961 103.28C39.3549 103.184 39.3137 103.089 39.2703 103.032C39.2314 102.964 39.1311 102.885 39.0011 102.78C38.8711 102.676 38.7003 102.608 38.5045 102.57C38.3087 102.532 38.0264 102.512 37.6532 102.522C37.28 102.532 36.8615 102.59 36.3906 102.68L36.1791 102.714C35.449 102.86 34.9009 103.011 34.5304 103.181C34.1599 103.35 33.9463 103.489 33.8738 103.606C33.8127 103.726 33.7971 103.865 33.834 104.038C33.8639 104.195 33.9417 104.331 34.042 104.411C34.1537 104.495 34.3837 104.547 34.7433 104.571C35.1029 104.595 35.5875 104.537 36.2108 104.428L37.8303 104.135C39.6296 103.821 40.9813 103.804 41.8651 104.102C42.7488 104.4 43.292 105.025 43.4857 105.999L43.518 106.183C43.5872 106.54 43.6154 106.868 43.5911 107.161C43.5668 107.455 43.4675 107.772 43.2772 108.118C43.0915 108.453 42.8214 108.768 42.4603 109.046C42.0992 109.325 41.5833 109.595 40.9127 109.856C40.242 110.117 39.4415 110.34 38.5112 110.524L38.5248 110.49Z" fill="#EAE6DD"/>
<path d="M48.6431 108.314L47.1974 100.961L43.0486 101.78L42.5944 99.5024L53.9376 97.2684L54.3918 99.5456L50.2316 100.359L51.6773 107.712L48.6317 108.309L48.6431 108.314Z" fill="#EAE6DD"/>
<path d="M59.2862 102.662L59.9595 106.081L56.9411 106.676L55.0458 97.0353L62.8134 95.5046C65.6042 94.9513 67.16 95.5164 67.4897 97.177L67.5197 97.334C67.7225 98.3509 67.265 99.1714 66.1469 99.7955C66.7228 99.8396 67.2057 100.018 67.6161 100.313C68.0219 100.619 68.2847 101.053 68.4069 101.643L68.6881 103.06C68.8034 103.633 68.9409 104.017 69.1053 104.201L69.1213 104.26L66.0484 104.86C65.9298 104.76 65.8474 104.569 65.7898 104.282L65.573 103.168C65.4554 102.567 65.2177 102.169 64.8644 101.963C64.5112 101.757 63.9581 101.722 63.228 101.867L59.2952 102.64L59.2862 102.662ZM58.4953 98.6426L58.8666 100.531L63.443 99.6316C63.8592 99.5464 64.1433 99.3954 64.318 99.1879C64.4813 98.9758 64.5376 98.7344 64.4799 98.4478C64.4337 98.1657 64.2784 97.9589 64.0573 97.8184C63.8203 97.6847 63.4994 97.6627 63.0876 97.7366L58.5112 98.6357L58.4953 98.6426Z" fill="#EAE6DD"/>
<path d="M80.0011 102.133L78.7431 100.552L72.9066 101.702L72.3904 103.634L69.3175 104.233L72.2852 93.6355L76.2019 92.8701L83.2514 101.485L80.0056 102.122L80.0011 102.133ZM77.2111 98.5985L74.6381 95.348L73.565 99.3132L77.2156 98.5871L77.2111 98.5985Z" fill="#EAE6DD"/>
<path d="M84.8934 91.1548L86.7888 100.796L83.7704 101.39L81.8751 91.7496L84.8934 91.1548Z" fill="#EAE6DD"/>
<path d="M94.6148 99.4313L94.3441 99.482C93.3433 99.678 92.431 99.7508 91.6115 99.6892C90.7921 99.6275 90.1136 99.4767 89.5918 99.2299C89.0655 98.9945 88.6141 98.6702 88.224 98.2911C87.8498 97.9051 87.5575 97.5121 87.3699 97.1211C87.1823 96.7301 87.0379 96.3299 86.9571 95.9022L86.8879 95.5451C86.8072 95.1174 86.772 94.7078 86.78 94.289C86.7949 93.8861 86.8984 93.4261 87.0974 92.9248C87.2964 92.4236 87.5979 91.9631 87.9974 91.5547C88.3854 91.1418 88.967 90.7398 89.733 90.3714C90.4989 90.003 91.4084 89.7049 92.4684 89.4928L93.0256 89.3844C94.0537 89.1861 94.9752 89.0905 95.8013 89.1021C96.6228 89.125 97.2739 89.2122 97.7727 89.3839C98.2716 89.5556 98.6932 89.789 99.0421 90.0726C99.3979 90.3722 99.6466 90.6424 99.802 90.9151C99.9575 91.1878 100.07 91.4698 100.134 91.7723L96.9112 92.4177C96.4084 91.5586 95.1789 91.3341 93.2046 91.7237C90.7594 92.2033 89.7109 93.3166 90.0522 95.0478L90.0753 95.1888C90.2182 95.8917 90.6292 96.4506 91.3334 96.8358C92.0376 97.2209 92.9959 97.2982 94.2241 97.0607C94.7541 96.9546 95.243 96.8191 95.6795 96.6496C96.116 96.4801 96.4547 96.3244 96.6932 96.1554C96.9431 95.9909 97.143 95.8197 97.2996 95.6577C97.4607 95.4844 97.5696 95.343 97.6148 95.2291C97.6645 95.1038 97.6962 95.024 97.6801 94.9649L97.6891 94.9421L93.8906 95.6754L93.5355 93.8464L100.318 92.5047L101.377 97.9098L99.5592 98.2695C99.3895 97.7669 99.1721 97.2849 98.8706 96.8487C98.1298 98.1502 96.6915 99.0164 94.5602 99.4359L94.6148 99.4313Z" fill="#EAE6DD"/>
<path d="M102.798 97.6445L100.902 88.0036L103.921 87.4088L104.613 90.9144L111.093 89.6372L110.401 86.1316L113.419 85.5368L115.315 95.1778L112.296 95.7725L111.547 91.9803L105.067 93.2575L105.816 97.0497L102.798 97.6445Z" fill="#EAE6DD"/>
<path d="M120.552 94.1431L119.106 86.7907L114.957 87.6091L114.503 85.332L125.846 83.098L126.3 85.3752L122.14 86.189L123.586 93.5415L120.54 94.1386L120.552 94.1431Z" fill="#EAE6DD"/>
<path d="M132.844 91.7192L130.948 82.0783L137.331 80.815C138.229 80.6443 139.05 80.5352 139.797 80.5152C140.543 80.4951 141.18 80.5504 141.709 80.6811C142.237 80.8118 142.709 80.9858 143.101 81.1942C143.504 81.4072 143.835 81.6704 144.077 81.9907C144.33 82.3155 144.522 82.6291 144.682 82.9564C144.831 83.2792 144.939 83.6386 145.022 84.0276L145.105 84.4166C145.199 84.8761 145.225 85.3085 145.201 85.7341C145.177 86.1598 145.051 86.6108 144.829 87.1029C144.608 87.5951 144.288 88.0352 143.866 88.4345C143.443 88.8339 142.832 89.211 142.043 89.5703C141.255 89.9296 140.322 90.2187 139.235 90.4331L132.841 91.6919L132.844 91.7192ZM134.416 83.772L135.41 88.8086L138.542 88.193C141.128 87.6903 142.245 86.6041 141.927 84.948L141.915 84.8775C141.592 83.2328 140.134 82.6538 137.555 83.1723L134.423 83.7879L134.416 83.772Z" fill="#EAE6DD"/>
<path d="M149.407 84.8988L150.08 88.3179L147.062 88.9127L145.166 79.2718L152.934 77.741C155.725 77.1877 157.28 77.7528 157.61 79.4135L157.64 79.5705C157.843 80.5873 157.385 81.4078 156.267 82.032C156.843 82.0761 157.338 82.2592 157.748 82.554C158.154 82.8603 158.417 83.2943 158.539 83.8835L158.82 85.3007C158.935 85.874 159.073 86.2583 159.237 86.4422L159.253 86.5014L156.18 87.1008C156.062 87.001 155.968 86.8055 155.922 86.5234L155.705 85.4087C155.587 84.8081 155.35 84.4104 154.996 84.2042C154.643 83.998 154.09 83.963 153.36 84.1082L149.427 84.8805L149.407 84.8988ZM148.616 80.879L148.987 82.7672L153.563 81.8681C153.98 81.7828 154.275 81.6364 154.438 81.4243C154.602 81.2122 154.658 80.9709 154.6 80.6842C154.554 80.4021 154.41 80.1999 154.178 80.0548C153.941 79.9211 153.62 79.8992 153.208 79.9731L148.632 80.8722L148.616 80.879Z" fill="#EAE6DD"/>
<path d="M161.367 76.0927L163.263 85.7337L160.244 86.3285L158.349 76.6875L161.367 76.0927Z" fill="#EAE6DD"/>
<path d="M171.34 80.8049L167.132 81.6394L167.766 84.8583L164.747 85.4531L162.852 75.8122L170.078 74.3829C173.069 73.7905 174.774 74.5463 175.184 76.6347L175.212 76.7644C175.629 78.8686 174.342 80.217 171.34 80.8049ZM166.299 77.3922L166.703 79.4646L170.863 78.6507C171.793 78.4663 172.202 78.0351 172.061 77.3595L172.052 77.3163C171.916 76.6293 171.378 76.3894 170.453 76.5624L166.292 77.3763L166.299 77.3922Z" fill="#EAE6DD"/>
<path d="M247.968 68.1568L247.438 68.2628C246.665 68.4172 245.951 68.4896 245.291 68.4913C244.631 68.4929 244.055 68.4488 243.584 68.3408C243.112 68.2327 242.675 68.0722 242.287 67.8524C241.896 67.644 241.579 67.4126 241.325 67.1538C241.079 66.9109 240.862 66.627 240.677 66.3293C240.48 66.0271 240.341 65.7474 240.247 65.4859C240.153 65.2244 240.086 64.9606 240.036 64.6899L239.959 64.3168C239.874 63.9005 239.834 63.5023 239.845 63.1108C239.851 62.7307 239.938 62.2775 240.13 61.7604C240.307 61.2501 240.597 60.7851 240.969 60.3791C241.346 59.9616 241.923 59.571 242.686 59.1753C243.461 58.7842 244.394 58.495 245.481 58.2806L246.011 58.1746C247.071 57.9626 248.026 57.8805 248.882 57.917C249.726 57.9491 250.407 58.0611 250.908 58.2602C251.409 58.4592 251.838 58.7085 252.189 59.0194C252.54 59.3303 252.791 59.6279 252.924 59.8916C253.068 60.1598 253.158 60.4327 253.208 60.7034L253.243 60.849L250.04 61.4761C249.999 61.3806 249.942 61.292 249.892 61.2193C249.842 61.1466 249.716 61.0308 249.511 60.8834C249.322 60.7291 249.087 60.6227 248.843 60.5391C248.595 60.4669 248.233 60.4154 247.764 60.4007C247.307 60.3905 246.772 60.4419 246.199 60.5571C245.512 60.6931 244.934 60.8858 244.471 61.1236C244.007 61.3615 243.689 61.6308 243.49 61.934C243.29 62.2373 243.173 62.5334 243.121 62.8294C243.07 63.1255 243.079 63.4327 243.146 63.7626L243.176 63.9195C243.236 64.2335 243.36 64.5199 243.531 64.7858C243.703 65.0517 243.949 65.2946 244.243 65.5169C244.549 65.7437 244.968 65.8838 245.48 65.9553C246.008 66.02 246.6 65.9912 247.259 65.8575C249.234 65.4679 250.299 64.6777 250.423 63.5007C250.432 63.4779 250.437 63.4666 250.437 63.4666L253.639 62.8394L253.663 62.9805C253.72 63.2671 253.735 63.563 253.697 63.8908C253.663 64.2073 253.542 64.5809 253.331 65.0115C253.12 65.4422 252.814 65.8481 252.428 66.2224C252.031 66.5921 251.452 66.9554 250.686 67.3238C249.913 67.6762 249.008 67.963 247.964 68.1682L247.968 68.1568Z" fill="#EAE6DD"/>
<path d="M253.566 56.8701L263.724 54.8644L264.16 57.0551L256.981 58.4638L257.258 59.8924L264.268 58.5092L264.699 60.7113L257.689 62.0945L258 63.6687L265.308 62.2324L265.749 64.4777L255.466 66.4996L253.57 56.8587L253.566 56.8701Z" fill="#EAE6DD"/>
<path d="M269.329 60.2195L270.002 63.6387L266.984 64.2334L265.089 54.5925L272.856 53.0617C275.647 52.5085 277.203 53.0736 277.533 54.7342L277.563 54.8912C277.766 55.9081 277.308 56.7286 276.19 57.3527C276.766 57.3968 277.26 57.5799 277.67 57.8748C278.081 58.1696 278.339 58.6151 278.461 59.2042L278.742 60.6215C278.858 61.1947 278.995 61.579 279.16 61.763L279.176 61.8221L276.103 62.4216C275.984 62.3218 275.89 62.1262 275.844 61.8441L275.627 60.7294C275.51 60.1289 275.272 59.7312 274.919 59.525C274.566 59.3187 274.024 59.2882 273.282 59.4289L269.345 60.2126L269.329 60.2195ZM268.543 56.1884L268.914 58.0766L273.49 57.1774C273.907 57.0922 274.202 56.9458 274.365 56.7337C274.529 56.5216 274.585 56.2802 274.527 55.9936C274.481 55.7115 274.326 55.5047 274.105 55.3642C273.868 55.2305 273.547 55.2086 273.135 55.2824L268.559 56.1816L268.543 56.1884Z" fill="#EAE6DD"/>
<path d="M283.825 60.9233L282.38 53.5709L278.231 54.3893L277.777 52.1122L289.12 49.8783L289.574 52.1554L285.414 52.9693L286.859 60.3216L283.814 60.9188L283.825 60.9233Z" fill="#EAE6DD"/>
<path d="M293.245 49.049L295.141 58.6899L292.123 59.2847L290.227 49.6438L293.245 49.049Z" fill="#EAE6DD"/>
<path d="M294.718 48.765L304.676 46.7986L305.112 48.9892L298.161 50.3564L298.438 51.785L305.22 50.4433L305.652 52.6454L298.869 53.9871L299.621 57.8066L296.618 58.3945L294.723 48.7536L294.718 48.765Z" fill="#EAE6DD"/>
<path d="M308.958 45.9574L310.854 55.5983L307.835 56.1931L305.94 46.5522L308.958 45.9574Z" fill="#EAE6DD"/>
<path d="M310.437 45.6589L320.595 43.6533L321.031 45.8439L313.852 47.2526L314.129 48.6813L321.139 47.298L321.57 49.5001L314.56 50.8833L314.871 52.4575L322.18 51.0213L322.62 53.2665L312.337 55.2884L310.441 45.6475L310.437 45.6589Z" fill="#EAE6DD"/>
<path d="M323.877 53.026L321.982 43.3851L328.364 42.1218C329.263 41.9511 330.084 41.8421 330.83 41.822C331.577 41.8019 332.214 41.8572 332.742 41.9879C333.271 42.1186 333.742 42.2927 334.134 42.5011C334.538 42.714 334.857 42.9727 335.11 43.2975C335.364 43.6224 335.556 43.9359 335.716 44.2633C335.865 44.5861 335.972 44.9454 336.055 45.3344L336.138 45.7234C336.233 46.1829 336.259 46.6153 336.235 47.041C336.211 47.4667 336.085 47.9176 335.863 48.4098C335.641 48.902 335.321 49.342 334.899 49.7414C334.477 50.1407 333.866 50.5178 333.077 50.8771C332.288 51.2365 331.356 51.5256 330.269 51.74L323.875 52.9987L323.877 53.026ZM325.439 45.0743L326.432 50.1109L329.564 49.4953C332.139 48.9882 333.267 47.9065 332.949 46.2504L332.926 46.1753C332.603 44.5306 331.145 43.9516 328.566 44.4701L325.434 45.0857L325.439 45.0743Z" fill="#EAE6DD"/>
<path d="M346.081 48.6444L344.186 39.0035L350.568 37.7402C351.466 37.5695 352.288 37.4605 353.034 37.4404C353.78 37.4203 354.418 37.4756 354.946 37.6063C355.474 37.737 355.946 37.9111 356.338 38.1195C356.741 38.3324 357.06 38.5911 357.314 38.9159C357.567 39.2407 357.771 39.5588 357.919 39.8817C358.068 40.2045 358.176 40.5638 358.259 40.9528L358.342 41.3418C358.436 41.8013 358.463 42.2337 358.439 42.6594C358.415 43.085 358.288 43.536 358.067 44.0282C357.845 44.5203 357.525 44.9604 357.103 45.3598C356.681 45.7591 356.069 46.1362 355.281 46.4955C354.492 46.8548 353.56 47.1439 352.472 47.3583L346.079 48.6171L346.081 48.6444ZM347.642 40.6927L348.636 45.7293L351.768 45.1137C354.343 44.6065 355.471 43.5249 355.153 41.8687L355.13 41.7937C354.807 40.149 353.349 39.57 350.77 40.0885L347.638 40.7041L347.642 40.6927Z" fill="#EAE6DD"/>
<path d="M362.646 41.8347L363.319 45.2538L360.301 45.8486L358.406 36.2077L366.173 34.6769C368.964 34.1237 370.52 34.6887 370.85 36.3494L370.88 36.5064C371.082 37.5232 370.625 38.3438 369.507 38.9679C370.083 39.012 370.577 39.1951 370.987 39.49C371.398 39.7848 371.656 40.2303 371.778 40.8194L372.059 42.2367C372.175 42.8099 372.312 43.1942 372.476 43.3782L372.493 43.4373L369.42 44.0368C369.301 43.9369 369.207 43.7415 369.161 43.4593L368.944 42.3446C368.827 41.7441 368.589 41.3464 368.236 41.1401C367.882 40.9339 367.341 40.9034 366.599 41.0441L362.666 41.8164L362.646 41.8347ZM361.848 37.7991L362.22 39.6872L366.796 38.7881C367.212 38.7028 367.508 38.5564 367.671 38.3443C367.834 38.1323 367.895 37.8795 367.833 37.6042C367.787 37.3221 367.631 37.1154 367.406 36.9862C367.169 36.8526 366.848 36.8306 366.436 36.9044L361.86 37.8036L361.848 37.7991Z" fill="#EAE6DD"/>
<path d="M374.611 33.0195L376.506 42.6604L373.488 43.2552L371.593 33.6143L374.611 33.0195Z" fill="#EAE6DD"/>
<path d="M384.569 37.7241L380.361 38.5586L380.996 41.7776L377.977 42.3723L376.082 32.7314L383.308 31.3021C386.299 30.7097 388.003 31.4656 388.414 33.554L388.441 33.6836C388.859 35.7879 387.572 37.1362 384.569 37.7241ZM379.529 34.3114L379.933 36.3838L384.093 35.5699C385.023 35.3855 385.432 34.9544 385.291 34.2787L385.282 34.2355C385.146 33.5485 384.608 33.3086 383.678 33.493L379.518 34.3069L379.529 34.3114Z" fill="#EAE6DD"/>
<path d="M454.708 27.4164L454.178 27.5225C453.405 27.6769 452.69 27.7493 452.03 27.7509C451.37 27.7526 450.795 27.7085 450.323 27.6005C449.852 27.4924 449.415 27.3319 449.027 27.1121C448.635 26.9037 448.318 26.6723 448.076 26.418C447.83 26.1751 447.613 25.8912 447.417 25.589C447.22 25.2867 447.081 25.0071 446.998 24.7502C446.904 24.4886 446.837 24.2248 446.787 23.9541L446.711 23.581C446.625 23.1647 446.586 22.7665 446.596 22.375C446.602 21.9949 446.689 21.5418 446.881 21.0246C447.058 20.5144 447.348 20.0493 447.72 19.6433C448.097 19.2258 448.674 18.8351 449.437 18.4395C450.212 18.0483 451.145 17.7592 452.232 17.5448L452.762 17.4388C453.822 17.2268 454.777 17.1447 455.633 17.1812C456.489 17.2178 457.158 17.3254 457.659 17.5244C458.16 17.7234 458.589 17.9727 458.94 18.2836C459.291 18.5946 459.543 18.8921 459.675 19.1558C459.819 19.424 459.909 19.6969 459.959 19.9676L459.994 20.1132L456.791 20.7403C456.75 20.6448 456.693 20.5562 456.643 20.4834C456.593 20.4107 456.467 20.295 456.262 20.1476C456.073 19.9933 455.838 19.8869 455.59 19.8147C455.342 19.7425 454.98 19.691 454.511 19.6763C454.053 19.666 453.519 19.7174 452.945 19.8327C452.259 19.9687 451.681 20.1613 451.217 20.3992C450.754 20.6371 450.436 20.9064 450.236 21.2097C450.037 21.5129 449.919 21.8091 449.868 22.1051C449.816 22.4011 449.826 22.7083 449.893 23.0381L449.923 23.1951C449.983 23.5091 450.106 23.7955 450.278 24.0614C450.449 24.3272 450.696 24.5702 450.99 24.7925C451.295 25.0193 451.714 25.1594 452.226 25.2309C452.755 25.2956 453.346 25.2668 454.006 25.1331C455.98 24.7435 457.045 23.9534 457.17 22.7763C457.179 22.7536 457.183 22.7422 457.183 22.7422L460.386 22.1151L460.409 22.2561C460.467 22.5427 460.481 22.8386 460.443 23.1664C460.41 23.4829 460.288 23.8564 460.078 24.2871C459.867 24.7178 459.561 25.1237 459.175 25.4979C458.778 25.8677 458.198 26.231 457.432 26.5994C456.666 26.9677 455.754 27.2386 454.71 27.4438L454.708 27.4164Z" fill="#EAE6DD"/>
<path d="M460.284 16.1289L470.442 14.1233L470.878 16.314L463.699 17.7226L463.976 19.1513L470.986 17.768L471.418 19.9701L464.407 21.3533L464.719 22.9276L472.027 21.4913L472.467 23.7366L462.184 25.7585L460.289 16.1175L460.284 16.1289Z" fill="#EAE6DD"/>
<path d="M476.067 19.4816L476.74 22.9007L473.722 23.4955L471.827 13.8546L479.594 12.3238C482.385 11.7706 483.941 12.3357 484.271 13.9963L484.301 14.1533C484.503 15.1701 484.046 15.9907 482.928 16.6148C483.504 16.6589 483.998 16.842 484.408 17.1368C484.819 17.4317 485.077 17.8771 485.199 18.4663L485.48 19.8836C485.596 20.4568 485.733 20.8411 485.898 21.0251L485.914 21.0842L482.841 21.6837C482.722 21.5839 482.628 21.3883 482.582 21.1062L482.365 19.9915C482.248 19.3909 482.01 18.9933 481.657 18.787C481.303 18.5808 480.75 18.5458 480.02 18.691L476.088 19.4633L476.067 19.4816ZM475.281 15.4505L475.652 17.3387L480.228 16.4395C480.645 16.3543 480.929 16.2033 481.103 15.9958C481.267 15.7837 481.323 15.5423 481.265 15.2556C481.219 14.9735 481.064 14.7668 480.843 14.6263C480.606 14.4926 480.285 14.4706 479.873 14.5445L475.297 15.4436L475.281 15.4505Z" fill="#EAE6DD"/>
<path d="M490.549 20.1806L489.104 12.8282L484.955 13.6466L484.501 11.3695L495.844 9.13551L496.298 11.4127L492.138 12.2265L493.584 19.5789L490.538 20.176L490.549 20.1806Z" fill="#EAE6DD"/>
<path d="M499.977 8.31266L501.873 17.9536L498.854 18.5484L496.959 8.90746L499.977 8.31266Z" fill="#EAE6DD"/>
<path d="M501.454 8.01306L511.412 6.04659L511.847 8.23728L504.896 9.60442L505.173 11.033L511.956 9.69139L512.387 11.8935L505.604 13.2351L506.356 17.0547L503.353 17.6426L501.458 8.00166L501.454 8.01306Z" fill="#EAE6DD"/>
<path d="M207.104 64.5586L208.197 70.1093L208.245 70.3527L208.377 70.1543L211.532 65.4601L212.367 66.0156L209.211 70.7098L209.079 70.9082L209.323 70.8598L214.873 69.767L215.066 70.7407L209.516 71.8334L209.273 71.8818L209.471 72.0133L214.165 75.1698L213.61 76.0042L208.916 72.8477L208.718 72.7163L208.766 72.9596L209.859 78.5103L208.886 78.704L207.793 73.1533L207.744 72.9099L207.613 73.1082L204.457 77.8024L203.623 77.2469L206.778 72.5527L206.91 72.3543L206.667 72.4028L201.117 73.4955L200.923 72.5219L206.473 71.4291L206.716 71.3807L206.518 71.2492L201.824 68.0928L202.38 67.2584L207.073 70.4148L207.272 70.5463L207.223 70.3029L206.13 64.7522L207.104 64.5586ZM207.181 64.4309L206.007 64.6637L207.125 70.3168L202.345 67.1128L201.676 68.1L206.457 71.304L200.804 72.422L201.037 73.5959L206.689 72.4778L203.486 77.2586L204.473 77.9276L207.677 73.1467L208.795 78.7998L209.968 78.567L208.85 72.9139L213.631 76.1179L214.299 75.1307L209.519 71.9267L215.171 70.8087L214.938 69.6348L209.286 70.7529L212.489 65.9721L211.502 65.3031L208.299 70.084L207.181 64.4309Z" fill="#EAE6DD"/>
<path d="M419.858 22.6243L420.951 28.175L420.999 28.4184L421.131 28.22L424.286 23.5259L425.121 24.0814L421.965 28.7756L421.834 28.9739L422.077 28.9255L427.627 27.8327L427.821 28.8064L422.271 29.8992L422.027 29.9476L422.226 30.0791L426.919 33.2354L426.364 34.0699L421.67 30.9135L421.472 30.782L421.52 31.0254L422.613 36.5761L421.64 36.7697L420.547 31.219L420.498 30.9756L420.367 31.1739L417.211 35.8682L416.377 35.3126L419.533 30.6184L419.664 30.4201L419.421 30.4685L413.871 31.5612L413.677 30.5876L419.227 29.4948L419.47 29.4464L419.272 29.3149L414.578 26.1585L415.134 25.3241L419.827 28.4805L420.026 28.612L419.977 28.3686L418.884 22.8179L419.858 22.6243ZM419.935 22.4966L418.761 22.7295L419.88 28.3825L415.099 25.1785L414.43 26.1657L419.211 29.3697L413.558 30.4877L413.791 31.6616L419.444 30.5435L416.24 35.3243L417.227 35.9933L420.431 31.2125L421.549 36.8655L422.723 36.6327L421.604 30.9796L426.385 34.1836L427.053 33.1964L422.273 29.9924L427.925 28.8744L427.693 27.7006L422.04 28.8186L425.244 24.0378L424.257 23.3689L421.053 28.1497L419.935 22.4966Z" fill="#EAE6DD"/>
</g>
<g clip-path="url(#clip1_569_4367)">
<path d="M849.545 99.9197L846.563 129.339L0.155032 43.5572L3.13666 14.1376L849.545 99.9197Z" fill="#FFE500" stroke="black" stroke-width="0.25"/>
<path d="M24.9096 36.604L24.0099 36.5133C23.0394 36.4131 22.2009 36.2457 21.4848 36.0035C20.7687 35.7613 20.2344 35.5075 19.8628 35.2265C19.4911 34.9456 19.2113 34.6283 19.0137 34.2667C18.8161 33.9052 18.6933 33.5876 18.6623 33.312C18.6217 33.0287 18.6156 32.7416 18.6516 32.4411L18.6706 32.2994L21.8634 32.6207C21.8321 33.6621 22.7382 34.2753 24.6083 34.4663L24.794 34.489C25.4027 34.5514 25.9195 34.5718 26.3271 34.5521C26.7347 34.5325 27.0352 34.49 27.2341 34.3978C27.4254 34.3153 27.5631 34.2213 27.6299 34.1178C27.7063 34.022 27.7521 33.8861 27.7615 33.7368C27.7899 33.5242 27.7534 33.3539 27.6518 33.2258C27.5502 33.0977 27.3261 32.9659 26.9527 32.8247C26.5717 32.6931 26.028 32.5886 25.3025 32.4957L23.6218 32.2835C20.4538 31.8722 18.9596 30.7581 19.1391 28.9413L19.1523 28.8265C19.1864 28.5087 19.2588 28.2215 19.3522 27.9668C19.4457 27.7121 19.6444 27.463 19.9044 27.2157C20.174 26.9761 20.501 26.7823 20.9027 26.6325C21.3045 26.4827 21.8345 26.3882 22.4909 26.3319C23.1473 26.2755 23.9091 26.3032 24.7723 26.3806L25.6816 26.479C26.5812 26.5697 27.3641 26.7084 28.0228 26.9048C28.6986 27.0991 29.2195 27.3109 29.6121 27.5459C30.0048 27.7808 30.3056 28.0522 30.5318 28.3582C30.758 28.6642 30.9134 28.9607 30.9808 29.2496C31.0481 29.5386 31.0638 29.8333 31.0298 30.1511L31.0185 30.2832L27.8429 29.96C27.8313 29.8566 27.8197 29.7533 27.7947 29.6863C27.7774 29.6098 27.7045 29.5046 27.6105 29.3669C27.5166 29.2292 27.3729 29.1145 27.1967 29.021C27.0205 28.9274 26.7563 28.8263 26.3963 28.7272C26.0364 28.6281 25.6191 28.5617 25.1425 28.5106L24.93 28.4822C24.1892 28.4085 23.6208 28.3939 23.217 28.448C22.8132 28.5021 22.5683 28.5732 22.4651 28.6633C22.3715 28.7611 22.3161 28.8894 22.301 29.0655C22.284 29.2244 22.3186 29.3775 22.3915 29.4827C22.4739 29.5955 22.6789 29.712 23.0159 29.8399C23.3529 29.9677 23.8334 30.0532 24.4612 30.1309L26.096 30.3221C27.9087 30.5456 29.2068 30.923 29.9654 31.4656C30.724 32.0083 31.0617 32.764 30.9635 33.7518L30.9407 33.9375C30.9029 34.2993 30.8344 34.621 30.7257 34.8948C30.6169 35.1687 30.4297 35.4427 30.1468 35.7187C29.8715 35.9851 29.5216 36.2076 29.095 36.3689C28.6684 36.5303 28.0962 36.6382 27.3786 36.6927C26.661 36.7472 25.8303 36.7272 24.8866 36.6327L24.9096 36.604Z" fill="black"/>
<path d="M35.2232 37.4683L35.9813 30.0136L31.774 29.5883L32.0027 27.2776L43.5048 28.4439L43.2761 30.7546L39.0592 30.3217L38.3011 37.7764L35.2136 37.4607L35.2232 37.4683Z" fill="black"/>
<path d="M47.0507 35.1616L46.6991 38.6286L43.6383 38.3186L44.6328 28.5436L52.5095 29.3412C55.3405 29.6247 56.6643 30.6184 56.496 32.3031L56.479 32.462C56.3769 33.4938 55.7002 34.1455 54.4489 34.417C54.987 34.6269 55.3969 34.9384 55.7037 35.3399C56.0027 35.7511 56.1278 36.2429 56.073 36.8421L55.9294 38.2798C55.8727 38.8618 55.8923 39.2695 55.996 39.4933L55.9941 39.5546L52.8798 39.2332C52.7954 39.1031 52.7722 38.8964 52.8005 38.6054L52.9178 37.4759C52.9802 36.8671 52.8686 36.4175 52.5907 36.1173C52.3128 35.8171 51.7939 35.6225 51.0532 35.5488L47.066 35.1424L47.0507 35.1616ZM47.4647 31.0858L47.27 33.0002L51.9099 33.4728C52.3329 33.5124 52.6486 33.4508 52.8762 33.3031C53.0942 33.1478 53.2183 32.9332 53.2467 32.6422C53.2846 32.3589 53.1962 32.1159 53.0257 31.917C52.8378 31.7201 52.5372 31.6056 52.1218 31.5564L47.4819 31.0838L47.4647 31.0858Z" fill="black"/>
<path d="M67.0219 40.6878L66.2789 38.8091L60.3603 38.2099L59.3041 39.9072L56.1898 39.5858L62.1151 30.3117L66.085 30.72L70.32 41.0147L67.0296 40.6782L67.0219 40.6878ZM65.3822 36.4941L63.8673 32.6351L61.686 36.116L65.3898 36.4845L65.3822 36.4941Z" fill="black"/>
<path d="M74.8992 31.6102L73.9048 41.3852L70.8441 41.0752L71.8385 31.3002L74.8992 31.6102Z" fill="black"/>
<path d="M81.789 42.359L81.5153 42.3288C80.5008 42.2248 79.6067 42.0288 78.8408 41.7312C78.0749 41.4335 77.4696 41.0916 77.0424 40.7036C76.6074 40.3252 76.27 39.8834 76.0072 39.4072C75.7616 38.9289 75.5965 38.4678 75.5309 38.0391C75.4652 37.6104 75.4436 37.1855 75.491 36.7529L75.5288 36.3911C75.5761 35.9584 75.6617 35.5563 75.7914 35.158C75.9229 34.7769 76.1559 34.367 76.4922 33.9454C76.8286 33.5239 77.2511 33.1711 77.7522 32.8967C78.2437 32.6147 78.9171 32.3995 79.7572 32.2702C80.5972 32.1408 81.5541 32.1204 82.6299 32.2263L83.1946 32.2849C84.2359 32.3946 85.1452 32.5714 85.9321 32.8231C86.7114 33.0843 87.3089 33.3573 87.7361 33.6668C88.1632 33.9764 88.4986 34.3224 88.7498 34.6954C89.0029 35.0855 89.1622 35.4164 89.2315 35.7226C89.3008 36.0288 89.326 36.3312 89.2996 36.6394L86.0284 36.3182C85.7975 35.3499 84.6867 34.7771 82.6845 34.5749C80.2057 34.3216 78.8784 35.0813 78.7007 36.8368L78.6817 36.9785C78.6137 37.6925 78.8442 38.3469 79.4057 38.9204C79.9672 39.4939 80.8614 39.8469 82.1056 39.9774C82.6435 40.0303 83.1507 40.0431 83.6176 40.008C84.0846 39.973 84.4539 39.9227 84.7313 39.8305C85.0183 39.7459 85.2593 39.6403 85.4563 39.5309C85.6609 39.412 85.8063 39.3084 85.8827 39.2126C85.9668 39.1073 86.0203 39.0402 86.0221 38.9789L86.0374 38.9597L82.19 38.5551L82.3829 36.7019L89.2623 37.3937L88.7007 42.8727L86.8574 42.6875C86.8414 42.1573 86.7738 41.6329 86.6124 41.1278C85.5247 42.1571 83.8965 42.5669 81.7354 42.3476L81.789 42.359Z" fill="black"/>
<path d="M90.1377 43.0328L91.1321 33.2578L94.1928 33.5678L93.8337 37.1229L100.405 37.7882L100.764 34.2332L103.825 34.5431L102.83 44.3182L99.7697 44.0082L100.157 40.1621L93.5859 39.4967L93.1984 43.3428L90.1377 43.0328Z" fill="black"/>
<path d="M108.142 44.8535L108.9 37.3987L104.692 36.9734L104.921 34.6628L116.423 35.829L116.194 38.1397L111.978 37.7068L111.219 45.1615L108.132 44.8458L108.142 44.8535Z" fill="black"/>
<path d="M120.607 46.1143L121.601 36.3393L128.075 36.9895C128.984 37.0878 129.801 37.2227 130.521 37.4208C131.241 37.619 131.835 37.8575 132.302 38.1364C132.769 38.4153 133.17 38.7191 133.484 39.0326C133.808 39.3538 134.048 39.7018 134.186 40.0788C134.334 40.4633 134.426 40.8192 134.484 41.179C134.532 41.5312 134.531 41.9063 134.497 42.3026L134.463 42.6989C134.419 43.166 134.319 43.5873 134.172 43.9875C134.025 44.3878 133.773 44.7824 133.417 45.1886C133.062 45.5949 132.628 45.9228 132.107 46.1819C131.587 46.4409 130.893 46.6237 130.033 46.7377C129.174 46.8518 128.198 46.8568 127.096 46.7453L120.612 46.0875L120.607 46.1143ZM124.426 38.9696L123.909 44.0772L127.085 44.4005C129.706 44.6728 131.09 43.9589 131.268 42.2819L131.278 42.211C131.448 40.5436 130.222 39.5651 127.603 39.31L124.428 38.9868L124.426 38.9696Z" fill="black"/>
<path d="M138.438 44.413L138.087 47.88L135.026 47.57L136.02 37.795L143.897 38.5927C146.728 38.8762 148.052 39.8699 147.883 41.5545L147.866 41.7134C147.764 42.7453 147.088 43.397 145.836 43.6685C146.374 43.8783 146.794 44.1975 147.101 44.5991C147.4 45.0102 147.525 45.502 147.47 46.1012L147.326 47.5389C147.27 48.1209 147.289 48.5286 147.393 48.7524L147.391 48.8137L144.277 48.4923C144.192 48.3622 144.16 48.1479 144.198 47.8645L144.315 46.735C144.377 46.1262 144.266 45.6765 143.988 45.3764C143.71 45.0762 143.191 44.8816 142.45 44.8079L138.463 44.4015L138.438 44.413ZM138.852 40.3372L138.657 42.2516L143.297 42.7242C143.72 42.7639 144.046 42.7099 144.264 42.5545C144.482 42.3992 144.606 42.1847 144.634 41.8937C144.672 41.6103 144.593 41.375 144.413 41.1685C144.225 40.9716 143.925 40.8571 143.509 40.8079L138.869 40.3353L138.852 40.3372Z" fill="black"/>
<path d="M152.445 39.4719L151.45 49.2469L148.39 48.9369L149.384 39.1619L152.445 39.4719Z" fill="black"/>
<path d="M160.613 46.8839L156.344 46.4568L156.013 49.7209L152.952 49.4109L153.947 39.6359L161.276 40.373C164.31 40.6773 165.72 41.8967 165.505 44.014L165.493 44.1462C165.28 46.2807 163.656 47.1959 160.613 46.8839ZM156.785 42.1513L156.567 44.2514L160.784 44.6843C161.728 44.7788 162.244 44.4853 162.306 43.798L162.31 43.754C162.38 43.0572 161.936 42.6711 160.999 42.567L156.783 42.1341L156.785 42.1513Z" fill="black"/>
<path d="M237.603 57.1L237.066 57.0471C236.281 56.9696 235.576 56.8308 234.944 56.6402C234.313 56.4496 233.775 56.2397 233.355 55.9991C232.936 55.7584 232.564 55.4775 232.257 55.1544C231.943 54.8409 231.707 54.5273 231.54 54.2059C231.375 53.9018 231.251 53.567 231.16 53.2283C231.06 52.8819 231.008 52.5738 230.994 52.2963C230.981 52.0187 230.994 51.7469 231.024 51.4731L231.06 51.0941C231.1 50.671 231.178 50.2785 231.301 49.907C231.418 49.5451 231.634 49.1371 231.968 48.6983C232.285 48.2614 232.698 47.9011 233.172 47.621C233.654 47.3313 234.32 47.1257 235.166 46.9695C236.021 46.821 236.997 46.8159 238.1 46.9275L238.638 46.9804C239.713 47.0862 240.651 47.286 241.459 47.5701C242.258 47.8467 242.876 48.1521 243.298 48.4885C243.719 48.8248 244.057 49.1881 244.302 49.5879C244.548 49.9876 244.701 50.3454 244.751 50.6362C244.811 50.9348 244.817 51.2219 244.787 51.4957L244.778 51.645L241.531 51.3123C241.52 51.2089 241.491 51.1075 241.464 51.0233C241.437 50.9391 241.351 50.7918 241.197 50.591C241.061 50.3883 240.868 50.2182 240.659 50.0673C240.442 49.9259 240.111 49.7713 239.667 49.6206C239.232 49.4776 238.706 49.3711 238.124 49.3144C237.427 49.2445 236.818 49.2606 236.306 49.3531C235.793 49.4457 235.41 49.6107 235.131 49.8427C234.852 50.0747 234.653 50.3238 234.518 50.5919C234.382 50.8601 234.302 51.1569 234.27 51.4919L234.253 51.6508C234.219 51.9686 234.254 52.2787 234.34 52.5829C234.427 52.8872 234.592 53.1913 234.808 53.4896C235.035 53.7956 235.395 54.0516 235.864 54.2693C236.35 54.4849 236.925 54.6297 237.595 54.6939C239.597 54.8962 240.846 54.4504 241.308 53.3607C241.323 53.3415 241.331 53.3319 241.331 53.3319L244.577 53.6647L244.558 53.8064C244.53 54.0973 244.458 54.3846 244.326 54.6872C244.202 54.9802 243.976 55.3021 243.65 55.6528C243.323 56.0035 242.912 56.3026 242.433 56.5483C241.946 56.7862 241.286 56.9651 240.446 57.0944C239.604 57.2065 238.654 57.2173 237.596 57.1096L237.603 57.1Z" fill="black"/>
<path d="M246.245 47.9326L256.547 48.9722L256.326 51.1948L249.048 50.4519L248.897 51.8992L256.006 52.6175L255.777 54.8496L248.668 54.1314L248.507 55.728L255.917 56.4822L255.685 58.7585L245.258 57.698L246.253 47.923L246.245 47.9326Z" fill="black"/>
<path d="M260.35 55.7275L259.998 59.1945L256.937 58.8845L257.932 49.1095L265.809 49.9071C268.64 50.1906 269.963 51.1843 269.795 52.869L269.778 53.0279C269.676 54.0598 268.999 54.7114 267.748 54.983C268.286 55.1928 268.706 55.5119 269.012 55.9135C269.319 56.3151 269.436 56.8165 269.382 57.4157L269.238 58.8534C269.181 59.4354 269.201 59.8431 269.305 60.0669L269.303 60.1281L266.188 59.8067C266.104 59.6767 266.071 59.4623 266.109 59.179L266.226 58.0495C266.289 57.4407 266.177 56.991 265.899 56.6908C265.621 56.3907 265.112 56.2037 264.362 56.1224L260.367 55.7255L260.35 55.7275ZM260.771 51.6421L260.577 53.5565L265.217 54.0291C265.64 54.0688 265.965 54.0147 266.183 53.8594C266.401 53.7041 266.525 53.4896 266.553 53.1986C266.591 52.9152 266.503 52.6722 266.332 52.4734C266.145 52.2765 265.844 52.162 265.429 52.1128L260.789 51.6402L260.771 51.6421Z" fill="black"/>
<path d="M274.012 60.6224L274.771 53.1676L270.563 52.7423L270.792 50.4316L282.294 51.5979L282.065 53.9086L277.849 53.4757L277.09 60.9304L274.003 60.6147L274.012 60.6224Z" fill="black"/>
<path d="M286.482 52.0062L285.488 61.7812L282.427 61.4712L283.422 51.6962L286.482 52.0062Z" fill="black"/>
<path d="M287.974 52.1634L298.073 53.1822L297.852 55.4048L290.804 54.6884L290.653 56.1357L297.532 56.8275L297.304 59.0597L290.424 58.3679L290.031 62.2408L286.987 61.9289L287.982 52.1538L287.974 52.1634Z" fill="black"/>
<path d="M302.415 53.6244L301.42 63.3994L298.359 63.0895L299.354 53.3145L302.415 53.6244Z" fill="black"/>
<path d="M303.916 53.7695L314.218 54.809L313.997 57.0317L306.719 56.2888L306.568 57.7361L313.677 58.4543L313.448 60.6865L306.339 59.9682L306.179 61.5649L313.588 62.3191L313.356 64.5954L302.929 63.5349L303.924 53.7599L303.916 53.7695Z" fill="black"/>
<path d="M314.628 64.7314L315.623 54.9564L322.096 55.6066C323.006 55.7049 323.823 55.8398 324.543 56.0379C325.263 56.2361 325.856 56.4746 326.324 56.7534C326.791 57.0323 327.191 57.3362 327.506 57.6497C327.83 57.9708 328.06 58.3113 328.208 58.6958C328.355 59.0804 328.448 59.4363 328.506 59.7961C328.554 60.1482 328.552 60.5234 328.518 60.9197L328.484 61.316C328.441 61.7831 328.34 62.2043 328.193 62.6046C328.046 63.0048 327.794 63.3995 327.439 63.8057C327.083 64.212 326.649 64.5399 326.129 64.799C325.609 65.058 324.914 65.2408 324.055 65.3548C323.196 65.4689 322.22 65.4739 321.117 65.3624L314.634 64.7046L314.628 64.7314ZM318.438 57.579L317.921 62.6867L321.097 63.0099C323.708 63.2746 325.102 62.5684 325.28 60.8913L325.28 60.8129C325.45 59.1454 324.224 58.1669 321.606 57.9118L318.43 57.5886L318.438 57.579Z" fill="black"/>
<path d="M337.146 67.006L338.14 57.2309L344.614 57.8811C345.523 57.9794 346.34 58.1143 347.06 58.3124C347.78 58.5106 348.374 58.7491 348.841 59.028C349.308 59.3069 349.709 59.6107 350.023 59.9242C350.347 60.2454 350.577 60.5858 350.725 60.9704C350.873 61.3549 350.975 61.7185 351.023 62.0706C351.071 62.4228 351.07 62.798 351.036 63.1942L351.002 63.5905C350.958 64.0576 350.858 64.4789 350.711 64.8791C350.564 65.2794 350.312 65.674 349.956 66.0803C349.601 66.4865 349.167 66.8144 348.646 67.0735C348.126 67.3326 347.432 67.5153 346.572 67.6293C345.713 67.7434 344.737 67.7484 343.635 67.6369L337.151 66.9791L337.146 67.006ZM340.955 59.8536L340.439 64.9612L343.614 65.2845C346.225 65.5491 347.62 64.8429 347.797 63.1658L347.797 63.0874C347.968 61.4199 346.741 60.4414 344.123 60.1864L340.947 59.8631L340.955 59.8536Z" fill="black"/>
<path d="M354.976 65.3155L354.624 68.7825L351.564 68.4725L352.558 58.6975L360.435 59.4952C363.266 59.7787 364.59 60.7723 364.421 62.457L364.404 62.6159C364.302 63.6478 363.626 64.2995 362.374 64.571C362.912 64.7808 363.332 65.1 363.639 65.5016C363.945 65.9031 364.063 66.4045 364.008 67.0037L363.864 68.4414C363.808 69.0234 363.827 69.4311 363.931 69.6549L363.929 69.7162L360.815 69.3948C360.73 69.2647 360.697 69.0504 360.735 68.767L360.853 67.6375C360.915 67.0287 360.803 66.579 360.526 66.2789C360.248 65.9787 359.738 65.7918 358.988 65.7104L355.001 65.304L354.976 65.3155ZM355.388 61.2225L355.193 63.1369L359.833 63.6095C360.256 63.6491 360.582 63.5951 360.8 63.4398C361.018 63.2845 361.149 63.0604 361.17 62.7789C361.208 62.4956 361.12 62.2526 360.941 62.0633C360.754 61.8664 360.453 61.7519 360.038 61.7027L355.398 61.2301L355.388 61.2225Z" fill="black"/>
<path d="M368.99 60.3669L367.995 70.1419L364.934 69.8319L365.929 60.0569L368.99 60.3669Z" fill="black"/>
<path d="M377.146 67.7676L372.877 67.3405L372.547 70.6046L369.486 70.2946L370.48 60.5196L377.81 61.2567C380.844 61.561 382.254 62.7804 382.038 64.8978L382.027 65.0299C381.813 67.1644 380.19 68.0796 377.146 67.7676ZM373.318 63.035L373.101 65.1351L377.317 65.568C378.261 65.6625 378.777 65.369 378.84 64.6818L378.844 64.6377C378.913 63.9409 378.469 63.5548 377.525 63.4603L373.308 63.0274L373.318 63.035Z" fill="black"/>
<path d="M447.246 78.3326L446.709 78.2797C445.924 78.2023 445.219 78.0634 444.587 77.8728C443.956 77.6822 443.418 77.4724 442.998 77.2317C442.579 76.9911 442.207 76.7101 441.9 76.387C441.586 76.0735 441.35 75.7599 441.193 75.4462C441.028 75.1421 440.903 74.8072 440.803 74.4609C440.703 74.1146 440.651 73.8064 440.647 73.5365C440.633 73.259 440.646 72.9872 440.677 72.7134L440.712 72.3343C440.752 71.9113 440.83 71.5188 440.954 71.1473C441.07 70.7854 441.286 70.3774 441.621 69.9386C441.938 69.5017 442.351 69.1414 442.825 68.8613C443.307 68.5716 443.973 68.3659 444.818 68.2098C445.674 68.0613 446.65 68.0562 447.752 68.1677L448.29 68.2207C449.366 68.3265 450.304 68.5263 451.112 68.8104C451.92 69.0946 452.529 69.3924 452.951 69.7288C453.372 70.0651 453.709 70.4284 453.955 70.8281C454.2 71.2279 454.354 71.5856 454.404 71.8765C454.464 72.1751 454.47 72.4622 454.439 72.7359L454.43 72.8853L451.184 72.5525C451.172 72.4492 451.143 72.3478 451.116 72.2636C451.089 72.1794 451.003 72.0321 450.85 71.8313C450.714 71.6286 450.52 71.4585 450.304 71.3171C450.087 71.1757 449.756 71.0211 449.312 70.8704C448.877 70.7274 448.351 70.6209 447.769 70.5643C447.072 70.4943 446.463 70.5104 445.951 70.603C445.438 70.6955 445.055 70.8606 444.776 71.0926C444.497 71.3246 444.298 71.5737 444.163 71.8418C444.027 72.11 443.947 72.4068 443.915 72.7418L443.898 72.9007C443.864 73.2185 443.899 73.5285 443.985 73.8328C444.072 74.137 444.237 74.4412 444.453 74.7395C444.68 75.0455 445.04 75.3015 445.509 75.5191C445.995 75.7348 446.57 75.8795 447.24 75.9438C449.242 76.146 450.491 75.7003 450.953 74.6106C450.968 74.5914 450.976 74.5818 450.976 74.5818L454.222 74.9145L454.203 75.0562C454.175 75.3472 454.102 75.6344 453.971 75.937C453.847 76.2301 453.621 76.5519 453.294 76.9026C452.968 77.2533 452.557 77.5525 452.078 77.7981C451.591 78.0361 450.931 78.215 450.09 78.3443C449.25 78.4736 448.299 78.4672 447.241 78.3594L447.246 78.3326Z" fill="black"/>
<path d="M455.868 69.1582L466.17 70.1977L465.949 72.4204L458.671 71.6774L458.52 73.1248L465.629 73.843L465.4 76.0752L458.291 75.357L458.13 76.9536L465.54 77.7078L465.307 79.9841L454.881 78.9236L455.876 69.1486L455.868 69.1582Z" fill="black"/>
<path d="M469.991 76.9619L469.639 80.4289L466.578 80.1189L467.573 70.3439L475.449 71.1416C478.28 71.4251 479.604 72.4187 479.436 74.1034L479.419 74.2623C479.317 75.2942 478.64 75.9459 477.389 76.2174C477.927 76.4273 478.346 76.7464 478.653 77.1479C478.96 77.5495 479.077 78.0509 479.022 78.6501L478.879 80.0878C478.822 80.6698 478.842 81.0775 478.945 81.3013L478.944 81.3626L475.829 81.0412C475.745 80.9111 475.712 80.6968 475.75 80.4134L475.867 79.2839C475.93 78.6751 475.818 78.2255 475.54 77.9253C475.262 77.6251 474.743 77.4305 474.003 77.3568L470.015 76.9504L469.991 76.9619ZM470.412 72.8765L470.217 74.791L474.857 75.2635C475.28 75.3032 475.596 75.2416 475.824 75.0939C476.042 74.9385 476.166 74.724 476.194 74.433C476.232 74.1496 476.144 73.9067 475.973 73.7078C475.785 73.5109 475.485 73.3964 475.069 73.3472L470.429 72.8746L470.412 72.8765Z" fill="black"/>
<path d="M483.642 81.8482L484.4 74.3935L480.192 73.9682L480.421 71.6575L491.923 72.8238L491.695 75.1345L487.478 74.7015L486.72 82.1563L483.632 81.8406L483.642 81.8482Z" fill="black"/>
<path d="M496.117 73.2404L495.123 83.0154L492.062 82.7054L493.056 72.9304L496.117 73.2404Z" fill="black"/>
<path d="M497.616 73.3836L507.716 74.4023L507.494 76.6249L500.446 75.9085L500.295 77.3558L507.175 78.0476L506.946 80.2798L500.066 79.5881L499.673 83.4609L496.63 83.149L497.624 73.374L497.616 73.3836Z" fill="black"/>
<path d="M512.063 74.8491L511.068 84.6241L508.007 84.3141L509.002 74.5391L512.063 74.8491Z" fill="black"/>
<path d="M513.557 75.0039L523.859 76.0435L523.638 78.2661L516.36 77.5232L516.209 78.9705L523.318 79.6887L523.089 81.9209L515.98 81.2027L515.819 82.7993L523.229 83.5535L522.996 85.8298L512.57 84.7693L513.564 74.9943L513.557 75.0039Z" fill="black"/>
<path d="M199.558 41.7571L198.987 47.3855L198.962 47.6325L199.146 47.481L203.532 43.9093L204.168 44.6837L199.782 48.2554L199.599 48.4069L199.846 48.4315L205.473 49.0023L205.375 49.9901L199.747 49.4193L199.5 49.3947L199.652 49.5783L203.223 53.9648L202.449 54.6013L198.878 50.2148L198.726 50.0312L198.702 50.2782L198.131 55.9066L197.143 55.8083L197.714 50.1799L197.738 49.933L197.555 50.0844L193.169 53.6561L192.532 52.8817L196.918 49.31L197.102 49.1585L196.855 49.134L191.228 48.5631L191.326 47.5753L196.953 48.1461L197.2 48.1707L197.049 47.9871L193.478 43.6006L194.252 42.9641L197.823 47.3506L197.975 47.5342L197.999 47.2872L198.57 41.6589L199.558 41.7571ZM199.669 41.6574L198.478 41.5384L197.902 47.2721L194.262 42.8148L193.334 43.5644L196.974 48.0217L191.241 47.4452L191.122 48.636L196.855 49.2124L192.398 52.8532L193.148 53.7806L197.605 50.1398L197.028 55.8735L198.219 55.9926L198.795 50.2589L202.435 54.7162L203.363 53.9665L199.723 49.5093L205.455 50.0857L205.575 48.895L199.842 48.3185L204.298 44.6778L203.549 43.7504L199.092 47.3911L199.669 41.6574Z" fill="black"/>
<path d="M415.302 63.5991L414.732 69.2275L414.707 69.4744L414.891 69.323L419.277 65.7513L419.913 66.5257L415.527 70.0974L415.343 70.2489L415.59 70.2734L421.218 70.8443L421.12 71.8321L415.492 71.2613L415.245 71.2367L415.397 71.4203L418.968 75.8067L418.193 76.4433L414.622 72.0567L414.471 71.8732L414.446 72.1202L413.875 77.7485L412.888 77.6503L413.458 72.0219L413.483 71.7749L413.3 71.9264L408.914 75.4981L408.277 74.7237L412.663 71.152L412.847 71.0005L412.6 70.9759L406.972 70.4051L407.07 69.4172L412.698 69.9881L412.945 70.0127L412.794 69.8291L409.222 65.4426L409.997 64.8061L413.568 69.1926L413.719 69.3762L413.744 69.1292L414.315 63.5008L415.302 63.5991ZM415.413 63.4994L414.223 63.3804L413.646 69.114L410.006 64.6568L409.079 65.4064L412.719 69.8637L406.986 69.2872L406.867 70.4779L412.6 71.0544L408.143 74.6951L408.893 75.6225L413.349 71.9818L412.773 77.7155L413.963 77.8346L414.54 72.1009L418.18 76.5581L419.107 75.8085L415.467 71.3512L421.2 71.9277L421.319 70.7369L415.586 70.1605L420.043 66.5198L419.294 65.5923L414.837 69.2331L415.413 63.4994Z" fill="black"/>
</g>
<defs>
<clipPath id="clip0_569_4367">
<rect width="492.245" height="24.9378" fill="white" transform="translate(11 95.241) rotate(-11.1561)"/>
</clipPath>
<clipPath id="clip1_569_4367">
<rect width="508.318" height="30" fill="white" transform="translate(3.01868 14) rotate(5.77499)"/>
</clipPath>
</defs>
</svg>
